<?xml version="1.0" encoding="UTF-8"?>
<svg id="BeBold" xmlns="http://www.w3.org/2000/svg" viewBox="0 0 14 14">
  <defs>
    <style>
      .cls-1 {
        fill: #f4f4f9;
        fill-rule: evenodd;
      }
    </style>
  </defs>
  <path id="Light-mood" class="cls-1" d="m7,4.17c1.56,0,2.83,1.27,2.83,2.83s-1.27,2.83-2.83,2.83-2.83-1.27-2.83-2.83h0c0-1.56,1.27-2.83,2.83-2.83Zm0-4.17c.48,0,.88.39.88.88h0v.88c0,.48-.39.88-.88.88s-.88-.39-.88-.88v-.88c0-.48.39-.88.88-.88Zm0,11.38c.48,0,.88.39.88.88v.88c0,.48-.39.88-.88.88s-.88-.39-.88-.88v-.88c0-.48.39-.88.88-.88ZM.88,6.12h.88c.48,0,.88.39.88.88s-.39.88-.88.88h-.88c-.48,0-.88-.39-.88-.88s.39-.88.88-.88Zm11.38,0h.88c.48,0,.88.39.88.88s-.39.88-.88.88h-.88c-.48,0-.88-.39-.88-.88s.39-.88.88-.88ZM2.05,2.05c.34-.34.89-.34,1.24,0,0,0,0,0,0,0l.62.62c.37.32.41.87.09,1.23-.32.37-.87.41-1.23.09-.03-.03-.06-.06-.09-.09l-.62-.61c-.34-.34-.34-.9,0-1.24Zm8.04,8.05c.34-.34.89-.34,1.24,0,0,0,0,0,0,0l.62.61c.34.35.33.9-.02,1.24-.34.33-.87.33-1.21,0l-.62-.62c-.34-.34-.34-.89,0-1.23,0,0,0,0,0,0Zm-8.04.61l.62-.61c.32-.36.87-.4,1.23-.08s.4.87.08,1.23c-.02.03-.05.05-.08.08l-.62.62c-.34.35-.89.36-1.24.02-.35-.34-.36-.89-.02-1.24,0,0,.02-.02.03-.03ZM10.09,2.67l.62-.62c.34-.34.9-.34,1.24,0,.34.34.34.9,0,1.24h0l-.62.61c-.32.36-.87.4-1.23.08-.36-.32-.4-.87-.08-1.23.02-.03.05-.05.08-.08Z"/>
</svg>