<?xml version="1.0" encoding="UTF-8"?>
<svg id="BeBold" xmlns="http://www.w3.org/2000/svg" viewBox="0 0 12.31 14">
  <defs>
    <style>
      .cls-1 {
        fill: #bbdef0;
      }
    </style>
  </defs>
  <path id="User" class="cls-1" d="m0,11.95v-1.01c.04-.75.49-1.41,1.17-1.72h0c3.2-1.29,6.78-1.29,9.98,0h0c.68.31,1.13.98,1.17,1.73v1.01c0,1.13-.92,2.05-2.05,2.05,0,0,0,0,0,0H2.06C.92,14,0,13.08,0,11.95c0,0,0,0,0,0ZM6.15,0c-1.89,0-3.42,1.53-3.42,3.42,0,1.89,1.53,3.42,3.42,3.42,1.89,0,3.42-1.53,3.42-3.42h0C9.57,1.53,8.04,0,6.16,0c0,0,0,0,0,0Z"/>
</svg>