<?xml version="1.0" encoding="UTF-8"?>
<svg id="BeBold" xmlns="http://www.w3.org/2000/svg" viewBox="0 0 14.01 14">
  <defs>
    <style>
      .cls-1 {
        fill: #bbdef0;
      }
    </style>
  </defs>
  <path id="Add" class="cls-1" d="m12.5,5.5h-3.9c-.11,0-.19-.09-.2-.2V1.5c.06-.77-.52-1.44-1.28-1.5-.04,0-.08,0-.12,0-.81-.02-1.48.63-1.5,1.45,0,.02,0,.04,0,.05v3.9c0,.11-.09.19-.2.2H1.5c-.74-.09-1.4.44-1.49,1.17,0,.08-.01.15,0,.23.02.82.68,1.48,1.5,1.5h3.9c.11,0,.19.09.2.2v3.9c-.02.75.58,1.38,1.33,1.4.02,0,.05,0,.07,0,.82-.02,1.48-.68,1.5-1.5v-3.9c0-.11.09-.19.2-.2h3.9c.77-.02,1.38-.63,1.4-1.4.06-.77-.51-1.44-1.27-1.5-.07,0-.15,0-.23,0Z"/>
</svg>