<?xml version="1.0" encoding="UTF-8"?>
<svg id="Layer_1" data-name="Layer 1" xmlns="http://www.w3.org/2000/svg" viewBox="0 0 500 500">
  <defs>
    <style>
      .cls-1 {
        fill: #f2c222;
      }
    </style>
  </defs>
  <path class="cls-1" d="m357.88,312.59c-13.35,5.73-61.18,24.33-112.4,4.14-26.69-10.52-67.9-37.54-67.9-67.9,0-37.5,30.4-67.9,67.9-67.9s67.9-30.4,67.9-67.9-30.4-67.9-67.9-67.9c-112.5,0-203.71,91.2-203.71,203.71,0,123.6,133.67,222.66,203.71,203.71,49.42-13.37,77.83-88.41,112.4-139.94Z"/>
  <path class="cls-1" d="m457.81,240.97c-6.34,36.68-86.91,61.38-91.3,63.76h0s-8.75-119.39,23.4-131.66c23.21-8.86,73.43,35.93,67.9,67.9Z"/>
</svg>